<?xml version="1.0" encoding="utf-8"?>
<!-- Generator: Adobe Illustrator 19.1.0, SVG Export Plug-In . SVG Version: 6.00 Build 0)  -->
<svg version="1.1" xmlns="http://www.w3.org/2000/svg" xmlns:xlink="http://www.w3.org/1999/xlink" x="0px" y="0px"
	 viewBox="0 0 310 240" enable-background="new 0 0 310 240" xml:space="preserve">
<g id="Layer_1">
	<g>
		<circle fill="#808285" stroke="#231F20" stroke-width="8" stroke-miterlimit="10" cx="119" cy="119" r="104.7"/>
		<circle fill="#231F20" stroke="#231F20" stroke-width="10" stroke-miterlimit="10" cx="121" cy="124" r="28.7"/>
		<circle fill="#FFFFFF" stroke="#231F20" stroke-miterlimit="10" cx="125" cy="52" r="21.3"/>
		<circle fill="#FFFFFF" stroke="#231F20" stroke-miterlimit="10" cx="176" cy="77" r="21.3"/>
		<circle fill="#FFFFFF" stroke="#231F20" stroke-miterlimit="10" cx="185" cy="129" r="21.3"/>
		<circle fill="#FFFFFF" stroke="#231F20" stroke-miterlimit="10" cx="113" cy="187" r="21.3"/>
		<circle fill="#FFFFFF" stroke="#231F20" stroke-miterlimit="10" cx="162" cy="175" r="21.3"/>
		<circle fill="#FFFFFF" stroke="#231F20" stroke-miterlimit="10" cx="66" cy="163" r="21.3"/>
		<circle fill="#FFFFFF" stroke="#231F20" stroke-miterlimit="10" cx="109.6" cy="118.4" r="7.7"/>
		<circle fill="#FFFFFF" stroke="#231F20" stroke-miterlimit="10" cx="129.5" cy="111.6" r="7.7"/>
		<circle fill="#FFFFFF" stroke="#231F20" stroke-miterlimit="10" cx="136.2" cy="131.5" r="7.7"/>
		<circle fill="#FFFFFF" stroke="#231F20" stroke-miterlimit="10" cx="115.4" cy="138.6" r="7.7"/>
		<circle fill="#FFFFFF" stroke="#231F20" stroke-miterlimit="10" cx="47" cy="108" r="21.3"/>
		<circle fill="#FFFFFF" stroke="#231F20" stroke-miterlimit="10" cx="70" cy="61" r="21.3"/>
		<g>
			<g>
				<path fill="#231F20" d="M144.5,113.8c0.1,1.4,0.7,2.5,1.6,3.6c0.3,0.4,0.7,0.7,1,1.1c0.3,0.3,0-0.1,0.1,0.1
					c0.4,0.5,0.6,0.8,1.1,1.1c1.2,0.8,2.7,0.2,3.4-0.9c0.5-0.7,0.5-1.6,0.3-2.4c-0.1-0.3-0.2-0.6-0.4-0.9c-0.3-0.6,0,0,0,0.4
					c-1.4,0.6-2.8,1.2-4.3,1.8c0.2,0.2,0.3,0.3,0.5,0.4c0-0.1-0.1-0.1-0.1-0.2c0,0.1,0.1,0.2,0.2,0.3c0.6,0.7,1.2,1.2,2.2,1.2
					c0.9,0,1.7-0.5,2.2-1.2c0.8-1.3,0.8-4.1-0.4-5.2c-1.1-1-3.2-1-3.9,0.5c-0.4,0.7-0.5,1.4-0.3,2.2c0,0,0.6,1.1,0.5,1.1
					c0,0-0.2-0.5-0.1-0.1c0.1,0.3,0.2,0.6,0.4,0.9c0.3,0.5,0.7,1,1.3,1.3c1.1,0.6,2.1,0.3,3-0.4c1.2-0.9,1-2.9,0.3-4
					c-0.7-1.1-2.2-1.6-3.4-0.9c-1.1,0.7-1.6,2.3-0.9,3.4c0,0.1,0.1,0.1,0.1,0.2c-0.2-0.4-0.3-0.8-0.1-1.2c0.2-0.4,0.4-0.7,0.6-1.1
					c0,0-0.1,0-0.1,0.1c1-0.1,2-0.3,3-0.4c0.2,0.1,0.7,0.6,0.7,0.8c0-0.2-0.2-0.5-0.3-0.6c-0.1-0.2-0.1-0.3-0.2-0.5
					c-0.2-0.4,0.1-0.3,0.1,0.6c-0.1,0.4-0.2,0.8-0.3,1.3c0,0,0-0.1,0.1-0.1c-1.3,0.2-2.6,0.3-3.9,0.5c-0.4-0.9-0.6-1.2-0.5-0.8
					c0,0.2,0,0.1,0-0.3c0,0,0,0.5,0,0.5c0,0.2-0.1,0.7,0,0c-0.1,0.3-0.2,0.4,0.1-0.2c1.4,0,2.9,0,4.3,0c-0.4-0.6-0.8-1.1-1.3-1.6
					c-0.7-0.7-1.8-0.9-2.7-0.5c-0.8,0.3-1.7,1.3-1.5,2.3c0.1,0.7,0.2,1,0.5,1.7c0,0.1,0.1,0.2,0.2,0.3c0.1,0.2,0.1,0.2,0,0
					c-0.2-0.5-0.2-1,0.2-1.6c1.1-0.3,2.3-0.6,3.4-0.9c-0.1,0-0.1-0.1-0.2-0.1c0.3,0.3,0.6,0.6,0.9,0.9c-0.5-0.7-1-1.2-1.6-1.8
					c0,0-0.3-0.4-0.2-0.2c0.1,0.2-0.1-0.2-0.2-0.3c-0.1-0.1-0.1-0.3-0.2-0.4c-0.1-0.1-0.1-0.1,0,0c0.1,0.1,0.1,0.2,0,0.3
					c-0.1-1.3-1.1-2.6-2.5-2.5C145.8,111.3,144.4,112.4,144.5,113.8L144.5,113.8z"/>
			</g>
		</g>
		<path fill="#020000" stroke="#231F20" stroke-miterlimit="10" d="M214,166"/>
		<path fill="#231F20" stroke="#231F20" stroke-width="8" stroke-miterlimit="10" d="M283.7,191.3c-10.4-13.3-3.7-28.9,1.8-42.8
			c5.4-13.4,8.1-29,5.4-43.4c-0.8-4.5-2.3-8.8-4.2-12.7c-2.9-5-6.6-9.5-10.9-13.2c-15.5-13.3-57.6-11.4-59.9-6.7l6.9,22.8
			c0.6,0.3,1.3,0.4,1.9,0.9c0.8,0,1.5-0.1,2.4-0.1c4.9-4.7,11.8-6.9,18.5-5.7c2.8,0.5,5.5,1.5,7.9,2.9c3.1,1.1,6.1,3,8.6,5.5
			c4.5,4.5,6.9,10.5,6.8,16.7c0.7,4.1,0.7,8.3-0.1,12.4c-2.5,12.3-11.6,22.2-16.2,33.8c-1.7,7.5-2.4,15.1-1.3,22.3
			c0.4,2.6,1,5.5,1.9,8.3c1.9,4.3,4.5,8.3,7.7,11.6c0.8,0.8,1.7,1.7,2.8,2c1.6,0.5,3.2-0.1,4.8-0.7c6.7-2.5,16.6-4.2,21.7-6.4
			C287.4,196,285.1,193.1,283.7,191.3z"/>
	</g>
</g>
<g id="Layer_2">
</g>
</svg>
